<mxfile host="Electron" agent="Mozilla/5.0 (Windows NT 10.0; Win64; x64) AppleWebKit/537.36 (KHTML, like Gecko) draw.io/26.2.2 Chrome/134.0.6998.178 Electron/35.1.2 Safari/537.36" version="26.2.2">
  <diagram name="Pagina-1" id="XgdItsJ38oPA6gay9XEN">
    <mxGraphModel dx="680" dy="400" grid="1" gridSize="10" guides="1" tooltips="1" connect="1" arrows="1" fold="1" page="1" pageScale="1" pageWidth="827" pageHeight="1169" math="1" shadow="0">
      <root>
        <mxCell id="0" />
        <mxCell id="1" parent="0" />
        <mxCell id="4tIoIl7q3NGGyeTKYUsO-2" value="" style="endArrow=none;html=1;rounded=0;" edge="1" parent="1">
          <mxGeometry width="50" height="50" relative="1" as="geometry">
            <mxPoint x="320" y="280" as="sourcePoint" />
            <mxPoint x="440" y="280" as="targetPoint" />
          </mxGeometry>
        </mxCell>
        <mxCell id="4tIoIl7q3NGGyeTKYUsO-3" value="" style="endArrow=none;html=1;rounded=0;" edge="1" parent="1">
          <mxGeometry width="50" height="50" relative="1" as="geometry">
            <mxPoint x="380" y="280" as="sourcePoint" />
            <mxPoint x="450" y="390" as="targetPoint" />
          </mxGeometry>
        </mxCell>
        <mxCell id="4tIoIl7q3NGGyeTKYUsO-4" value="" style="endArrow=none;html=1;rounded=0;dashed=1;dashPattern=8 8;" edge="1" parent="1">
          <mxGeometry width="50" height="50" relative="1" as="geometry">
            <mxPoint x="380" y="280" as="sourcePoint" />
            <mxPoint x="380" y="390" as="targetPoint" />
          </mxGeometry>
        </mxCell>
        <mxCell id="4tIoIl7q3NGGyeTKYUsO-5" value="" style="endArrow=none;html=1;rounded=0;curved=1;" edge="1" parent="1">
          <mxGeometry width="50" height="50" relative="1" as="geometry">
            <mxPoint x="380" y="321" as="sourcePoint" />
            <mxPoint x="400" y="311" as="targetPoint" />
            <Array as="points">
              <mxPoint x="390" y="321" />
            </Array>
          </mxGeometry>
        </mxCell>
        <mxCell id="4tIoIl7q3NGGyeTKYUsO-6" value="$$\theta$$" style="text;html=1;align=center;verticalAlign=middle;resizable=0;points=[];autosize=1;strokeColor=none;fillColor=none;" vertex="1" parent="1">
          <mxGeometry x="347" y="293" width="80" height="30" as="geometry" />
        </mxCell>
        <mxCell id="4tIoIl7q3NGGyeTKYUsO-7" value="$$\ell$$" style="text;html=1;align=center;verticalAlign=middle;resizable=0;points=[];autosize=1;strokeColor=none;fillColor=none;" vertex="1" parent="1">
          <mxGeometry x="390" y="320" width="70" height="30" as="geometry" />
        </mxCell>
        <mxCell id="4tIoIl7q3NGGyeTKYUsO-8" value="$$m$$" style="text;html=1;align=center;verticalAlign=middle;resizable=0;points=[];autosize=1;strokeColor=none;fillColor=none;" vertex="1" parent="1">
          <mxGeometry x="440" y="375.5" width="60" height="30" as="geometry" />
        </mxCell>
        <mxCell id="4tIoIl7q3NGGyeTKYUsO-9" value="" style="ellipse;whiteSpace=wrap;html=1;strokeColor=none;fillColor=#3399FF;" vertex="1" parent="1">
          <mxGeometry x="448" y="388" width="5" height="5" as="geometry" />
        </mxCell>
      </root>
    </mxGraphModel>
  </diagram>
</mxfile>
